<mxfile host="Electron" agent="Mozilla/5.0 (Windows NT 10.0; Win64; x64) AppleWebKit/537.36 (KHTML, like Gecko) draw.io/24.7.17 Chrome/128.0.6613.36 Electron/32.0.1 Safari/537.36" version="24.7.17">
  <diagram name="Wireframe" id="pg2Kdro3HymlOJps6qVY">
    <mxGraphModel dx="1687" dy="984" grid="1" gridSize="10" guides="1" tooltips="1" connect="1" arrows="1" fold="1" page="1" pageScale="1" pageWidth="850" pageHeight="1100" math="0" shadow="0">
      <root>
        <mxCell id="0" />
        <mxCell id="1" parent="0" />
        <mxCell id="ahQK9jsco0dOjfoVY5je-4" value="" style="rounded=0;whiteSpace=wrap;html=1;" vertex="1" parent="1">
          <mxGeometry x="18" y="30" width="62" height="380" as="geometry" />
        </mxCell>
        <mxCell id="ahQK9jsco0dOjfoVY5je-8" value="(DROPDOWN)&amp;nbsp;Marcadores" style="swimlane;whiteSpace=wrap;html=1;fillColor=#fff2cc;strokeColor=#d6b656;" vertex="1" parent="1">
          <mxGeometry x="430" y="520" width="220" height="410" as="geometry" />
        </mxCell>
        <mxCell id="ahQK9jsco0dOjfoVY5je-24" value="Button Alarms" style="rounded=0;whiteSpace=wrap;html=1;" vertex="1" parent="ahQK9jsco0dOjfoVY5je-8">
          <mxGeometry x="20" y="40" width="180" height="50" as="geometry" />
        </mxCell>
        <mxCell id="ahQK9jsco0dOjfoVY5je-25" value="Button Positions" style="rounded=0;whiteSpace=wrap;html=1;" vertex="1" parent="ahQK9jsco0dOjfoVY5je-8">
          <mxGeometry x="20" y="100" width="180" height="50" as="geometry" />
        </mxCell>
        <mxCell id="ahQK9jsco0dOjfoVY5je-27" value="Button Orders" style="rounded=0;whiteSpace=wrap;html=1;" vertex="1" parent="ahQK9jsco0dOjfoVY5je-8">
          <mxGeometry x="20" y="160" width="180" height="50" as="geometry" />
        </mxCell>
        <mxCell id="ahQK9jsco0dOjfoVY5je-28" value="Button Diary" style="rounded=0;whiteSpace=wrap;html=1;" vertex="1" parent="ahQK9jsco0dOjfoVY5je-8">
          <mxGeometry x="20" y="220" width="180" height="50" as="geometry" />
        </mxCell>
        <mxCell id="ahQK9jsco0dOjfoVY5je-29" value="News" style="rounded=0;whiteSpace=wrap;html=1;" vertex="1" parent="ahQK9jsco0dOjfoVY5je-8">
          <mxGeometry x="20" y="280" width="180" height="50" as="geometry" />
        </mxCell>
        <mxCell id="ahQK9jsco0dOjfoVY5je-31" value="Earnings" style="rounded=0;whiteSpace=wrap;html=1;" vertex="1" parent="ahQK9jsco0dOjfoVY5je-8">
          <mxGeometry x="20" y="340" width="180" height="50" as="geometry" />
        </mxCell>
        <mxCell id="ahQK9jsco0dOjfoVY5je-12" value="(DROPDOWN) Indicadores" style="swimlane;whiteSpace=wrap;html=1;fillColor=#e1d5e7;strokeColor=#9673a6;" vertex="1" parent="1">
          <mxGeometry x="148" y="520" width="220" height="180" as="geometry" />
        </mxCell>
        <mxCell id="ahQK9jsco0dOjfoVY5je-22" value="Button EMAS" style="rounded=0;whiteSpace=wrap;html=1;" vertex="1" parent="ahQK9jsco0dOjfoVY5je-12">
          <mxGeometry x="22" y="40" width="178" height="50" as="geometry" />
        </mxCell>
        <mxCell id="ahQK9jsco0dOjfoVY5je-23" value="Button Schocastik" style="rounded=0;whiteSpace=wrap;html=1;" vertex="1" parent="ahQK9jsco0dOjfoVY5je-12">
          <mxGeometry x="22" y="110" width="178" height="50" as="geometry" />
        </mxCell>
        <mxCell id="ahQK9jsco0dOjfoVY5je-15" value="" style="shape=image;verticalLabelPosition=bottom;labelBackgroundColor=default;verticalAlign=top;aspect=fixed;imageAspect=0;image=data:image/svg+xml,PHN2ZyB4bWxucz0iaHR0cDovL3d3dy53My5vcmcvMjAwMC9zdmciIGZpbGw9IiM1ZjYzNjgiIHdpZHRoPSIyNHB4IiB2aWV3Qm94PSIwIC05NjAgOTYwIDk2MCIgaGVpZ2h0PSIyNHB4Ij48cGF0aCBkPSJNNzYwLTgwcS01MCAwLTg1LTM1dC0zNS04NXEwLTE0IDMtMjd0OS0yNUwyNTItNjUycS0xMiA2LTI1IDl0LTI3IDNxLTUwIDAtODUtMzV0LTM1LTg1cTAtNTAgMzUtODV0ODUtMzVxNTAgMCA4NSAzNXQzNSA4NXEwIDE0LTMgMjd0LTkgMjVsNDAwIDQwMHExMi02IDI1LTl0MjctM3E1MCAwIDg1IDM1dDM1IDg1cTAgNTAtMzUgODV0LTg1IDM1WiIvPjwvc3ZnPg==;" vertex="1" parent="1">
          <mxGeometry x="29" y="94" width="36" height="36" as="geometry" />
        </mxCell>
        <mxCell id="ahQK9jsco0dOjfoVY5je-16" value="" style="shape=image;verticalLabelPosition=bottom;labelBackgroundColor=default;verticalAlign=top;aspect=fixed;imageAspect=0;image=data:image/svg+xml,PHN2ZyB4bWxucz0iaHR0cDovL3d3dy53My5vcmcvMjAwMC9zdmciIGZpbGw9IiM1ZjYzNjgiIHdpZHRoPSIyNHB4IiB2aWV3Qm94PSIwIC05NjAgOTYwIDk2MCIgaGVpZ2h0PSIyNHB4Ij48cGF0aCBkPSJNNDE5LTgwcS0yOCAwLTUyLjUtMTJUMzI1LTEyNkwxMDctNDAzbDE5LTIwcTIwLTIxIDQ4LTI1dDUyIDExbDc0IDQ1di0zMjhxMC0xNyAxMS41LTI4LjVUMzQwLTc2MHExNyAwIDI5IDExLjV0MTIgMjguNXY0NzJsLTk3LTYwIDEwNCAxMzNxNiA3IDE0IDExdDE3IDRoMjIxcTMzIDAgNTYuNS0yMy41VDcyMC0yNDB2LTE2MHEwLTE3LTExLjUtMjguNVQ2ODAtNDQwSDQ2MXYtODBoMjE5cTUwIDAgODUgMzV0MzUgODV2MTYwcTAgNjYtNDcgMTEzVDY0MC04MEg0MTlaTTE2Ny02MjBxLTEzLTIyLTIwLTQ3LjV0LTctNTIuNXEwLTgzIDU4LjUtMTQxLjVUMzQwLTkyMHE4MyAwIDE0MS41IDU4LjVUNTQwLTcyMHEwIDI3LTcgNTIuNVQ1MTMtNjIwbC02OS00MHE4LTE0IDEyLTI4LjV0NC0zMS41cTAtNTAtMzUtODV0LTg1LTM1cS01MCAwLTg1IDM1dC0zNSA4NXEwIDE3IDQgMzEuNXQxMiAyOC41bC02OSA0MFptMzM1IDI4MFoiLz48L3N2Zz4=;" vertex="1" parent="1">
          <mxGeometry x="29" y="45" width="39" height="39" as="geometry" />
        </mxCell>
        <mxCell id="ahQK9jsco0dOjfoVY5je-17" value="" style="shape=image;verticalLabelPosition=bottom;labelBackgroundColor=default;verticalAlign=top;aspect=fixed;imageAspect=0;image=data:image/svg+xml,PHN2ZyB4bWxucz0iaHR0cDovL3d3dy53My5vcmcvMjAwMC9zdmciIGZpbGw9IiM1ZjYzNjgiIHdpZHRoPSIyNHB4IiB2aWV3Qm94PSIwIC05NjAgOTYwIDk2MCIgaGVpZ2h0PSIyNHB4Ij48cGF0aCBkPSJNMjQwLTEyMHEtNDUgMC04OS0yMnQtNzEtNThxMjYgMCA1My0yMC41dDI3LTU5LjVxMC01MCAzNS04NXQ4NS0zNXE1MCAwIDg1IDM1dDM1IDg1cTAgNjYtNDcgMTEzdC0xMTMgNDdabTAtODBxMzMgMCA1Ni41LTIzLjVUMzIwLTI4MHEwLTE3LTExLjUtMjguNVQyODAtMzIwcS0xNyAwLTI4LjUgMTEuNVQyNDAtMjgwcTAgMjMtNS41IDQyVDIyMC0yMDJxNSAyIDEwIDJoMTBabTIzMC0xNjBMMzYwLTQ3MGwzNTgtMzU4cTExLTExIDI3LjUtMTEuNVQ3NzQtODI4bDU0IDU0cTEyIDEyIDEyIDI4dC0xMiAyOEw0NzAtMzYwWm0tMTkwIDgwWiIvPjwvc3ZnPg==;" vertex="1" parent="1">
          <mxGeometry x="29" y="133" width="40" height="40" as="geometry" />
        </mxCell>
        <mxCell id="ahQK9jsco0dOjfoVY5je-18" value="" style="shape=image;verticalLabelPosition=bottom;labelBackgroundColor=default;verticalAlign=top;aspect=fixed;imageAspect=0;image=data:image/svg+xml,PHN2ZyB4bWxucz0iaHR0cDovL3d3dy53My5vcmcvMjAwMC9zdmciIGZpbGw9IiM1ZjYzNjgiIHdpZHRoPSIyNHB4IiB2aWV3Qm94PSIwIC05NjAgOTYwIDk2MCIgaGVpZ2h0PSIyNHB4Ij48cGF0aCBkPSJNMjgwLTE2MHYtNTIwSDgwdi0xMjBoNTIwdjEyMEg0MDB2NTIwSDI4MFptMzYwIDB2LTMyMEg1MjB2LTEyMGgzNjB2MTIwSDc2MHYzMjBINjQwWiIvPjwvc3ZnPg==;" vertex="1" parent="1">
          <mxGeometry x="28" y="184" width="40" height="40" as="geometry" />
        </mxCell>
        <mxCell id="ahQK9jsco0dOjfoVY5je-19" value="" style="shape=image;verticalLabelPosition=bottom;labelBackgroundColor=default;verticalAlign=top;aspect=fixed;imageAspect=0;image=data:image/svg+xml,PHN2ZyB4bWxucz0iaHR0cDovL3d3dy53My5vcmcvMjAwMC9zdmciIGZpbGw9IiM1ZjYzNjgiIHdpZHRoPSIyNHB4IiB2aWV3Qm94PSIwIC05NjAgOTYwIDk2MCIgaGVpZ2h0PSIyNHB4Ij48cGF0aCBkPSJNODAtMTYwdi02NDBoODAwdjY0MEg4MFptODAtODBoNjQwdi00ODBIMTYwdjQ4MFptMCAwdi00ODAgNDgwWiIvPjwvc3ZnPg==;" vertex="1" parent="1">
          <mxGeometry x="25" y="232" width="48" height="48" as="geometry" />
        </mxCell>
        <mxCell id="ahQK9jsco0dOjfoVY5je-20" value="" style="shape=image;verticalLabelPosition=bottom;labelBackgroundColor=default;verticalAlign=top;aspect=fixed;imageAspect=0;image=data:image/svg+xml,PHN2ZyB4bWxucz0iaHR0cDovL3d3dy53My5vcmcvMjAwMC9zdmciIGZpbGw9IiM1ZjYzNjgiIHdpZHRoPSIyNHB4IiB2aWV3Qm94PSIwIC05NjAgOTYwIDk2MCIgaGVpZ2h0PSIyNHB4Ij48cGF0aCBkPSJNMTYwLTI0MHEtMzMgMC01Ni41LTIzLjVUODAtMzIwdi0zMjBxMC0zMyAyMy41LTU2LjVUMTYwLTcyMGg2NDBxMzMgMCA1Ni41IDIzLjVUODgwLTY0MHYzMjBxMCAzMy0yMy41IDU2LjVUODAwLTI0MEgxNjBabTAtODBoNjQwdi0zMjBINjgwdjE2MGgtODB2LTE2MGgtODB2MTYwaC04MHYtMTYwaC04MHYxNjBoLTgwdi0xNjBIMTYwdjMyMFptMTIwLTE2MGg4MC04MFptMTYwIDBoODAtODBabTE2MCAwaDgwLTgwWm0tMTIwIDBaIi8+PC9zdmc+;" vertex="1" parent="1">
          <mxGeometry x="23" y="290" width="50" height="50" as="geometry" />
        </mxCell>
        <mxCell id="ahQK9jsco0dOjfoVY5je-21" value="" style="shape=image;verticalLabelPosition=bottom;labelBackgroundColor=default;verticalAlign=top;aspect=fixed;imageAspect=0;image=data:image/svg+xml,PHN2ZyB4bWxucz0iaHR0cDovL3d3dy53My5vcmcvMjAwMC9zdmciIGZpbGw9IiM1ZjYzNjgiIHdpZHRoPSIyNHB4IiB2aWV3Qm94PSIwIC05NjAgOTYwIDk2MCIgaGVpZ2h0PSIyNHB4Ij48cGF0aCBkPSJNMjgwLTEyMHEtMzMgMC01Ni41LTIzLjVUMjAwLTIwMHYtNTIwaC00MHYtODBoMjAwdi00MGgyNDB2NDBoMjAwdjgwaC00MHY1MjBxMCAzMy0yMy41IDU2LjVUNjgwLTEyMEgyODBabTQwMC02MDBIMjgwdjUyMGg0MDB2LTUyMFpNMzYwLTI4MGg4MHYtMzYwaC04MHYzNjBabTE2MCAwaDgwdi0zNjBoLTgwdjM2MFpNMjgwLTcyMHY1MjAtNTIwWiIvPjwvc3ZnPg==;" vertex="1" parent="1">
          <mxGeometry x="23" y="350" width="50" height="50" as="geometry" />
        </mxCell>
        <mxCell id="ahQK9jsco0dOjfoVY5je-33" value="" style="group" vertex="1" connectable="0" parent="1">
          <mxGeometry x="109" y="30" width="709.48" height="440" as="geometry" />
        </mxCell>
        <mxCell id="ahQK9jsco0dOjfoVY5je-7" value="" style="shape=image;verticalLabelPosition=bottom;labelBackgroundColor=default;verticalAlign=top;aspect=fixed;imageAspect=0;image=data:image/png,iVBORw0KGgoAAAANSUhEUgAAAdIAAAEhCAIAAABEBLbWAAAgAElEQVR4Ae2dT3LdNrPFPfQCbMd/RolkZfReYqXKo/fyjbwwL8Pb9Aq+Ulo5t9UgAYIA0Q3yVKlUJAg0Gj/yHhy1rq5e/fLpYdKv+9//mjTz6dIm6mG3jKjHoPbl/Ordx8/vPn7+5dODHJjvkdvvHh6RbeQ8keSknN99/AzU5Cx38zgOgvq4+EfnP0t8X86vxuwtR8ziu18dsaKwMYl62K0h6jGofTm/uv/9r7uHxxm///nXfybNfDrafzz+PV3Okz4bfKrHPGm+nOl2Zy1tjzEFMouvNRi5Uve5iHrMLfDl/Fzb1fXHWY5RcJwl4XnzJOph946ox6D25Uy3S7dbJuBrDcbYnyCzEPWYG+HLeeGdDPq3qJGP73//Cxtj5DxPkBuswQnWEvyZEdTkLLfpOA6+nOl2y15vzPYbeRZfaxCZTPfciLo70sWAvpxZ23162zK/8gTgdvPdrnn19Y/v8iXL//n1m3zto0HU+7jVjvLlTLdLt1sm4GsNFt1KnEbIrqQE2d2XIVHv41Y7ypcza7sv/kLvuFqS7MaTxoc1mDR/WKEj8ofsyl8hatndMa+gPiJPxtSvQV/OdLtlr1e7kZ6vv681CM4Tsit5atndkTlR74C2Y4gvZ9Z2WdgtE4DbhX3jAQhAdqUFsosOVQdEXYVrd2dfznS7dLtlAr7WYIeXGTkEsiuTQnb35UDU+7jVjvLlTLdb9nq7d9TTDPS1BsExQnYlT8juvrSJeh+32lG+nOl2y16vdiM9X39faxCcJ2RX8oTs7kubqPdxqx3ly5lul263TMDXGtQamcH9IbsyL2R3XxpEvY9b7ShfznS7dLtlAr7WoNbIDO4P2ZV5Ibv70iDqfdxqR/lyptste73ajfR8/X2tQXCekF3JE7K7L22i3setdpQvZ7rdster3UjP19/XGgTnCdmVPCG7+9Im6n3cakf5cqbbpdstE/C1BrVGZnB/yK7MC9ndlwZR7+NWO8qX883typ82yqYxxbF88CN2uSlylj/QnC7nu4fH6XIe9jxAdgURZHffvYYLG5b/vjxnfx58OdPtlr1e7UZ6vv6+1iA4T8iu5AnZ3Zc2Ue/jVjvKl/PN7WL7muUA+9UsCc+bJ1H//Ppt7fZBdqUDZHetf76dqPN8el315Uy3S7dbJuBrDWqNzBH9f379thYWsisdILtr/fPtRJ3n0+uqL+eb252ulsTaLnb+o+8da7vidhc5Q3bldkB299VM4cIW59oXc9hzMlHOvpzpdster9cGO28cX2sQgRvdboS70DEH30f65naxJc5ygP1qloTnzZOoWdud9+ldzNz3kabbpdstE/C1Bh09zu5QdLu70cUc6PtIP7ldqchM9x213ekyn4651HavzFnXdg0H1HalPa3tmv75u8+nOs+n11VfznS7Za8Xc7semZWvNRi50rW5WtxuZmw6HVGnTI5o8eXM2i4/k6FMwLcQtlibO7rx9Y/veoqW2m5mrJ5Cji+IOoUwoMWXM90u3W6ZgK81OMLs5GPqusG7j59RN1gcVexMt7vIzbfR95Fmbff5H7b3qhmdMs7VartQUrmbWnal5fWP76jYovNabTdTF06fFt+aY5rPWVt8OdPtlr2e77YcYXZfazCegFbSRbcrsiuJFTvT7Y6/g8UZfR/pW21X9uq0qhK23VRnwuZpkM6Yp0Y9Y/76FmzJH0oqXg9uF3Hgdn/59KA7//LpIe2s3S4i4MDkA9Smfa0/20FADjZy8+VMt0u3Wybgaw2KzqV7ByipRIaSyqm5ak5NZzHL2zO8GurtZPr29OXM2i5ru2UCrO2KmIqTgs6i7ilve5CrkF1c1W5X+mS++9YckXMmw3P08eVMt1v2en232Rmj+VqD8cQgrDI1lFROzdV3Hz/rUq/pTLc7/vZtmdH3kba1Xb3L6VpJwHbsV8HzhDuYN8/0E8gCPg8dOUNYJaZWUlPMFQ76Tb7ojHzW3O7i82BqjufmLKtb5CCNYNidgy9nul263TIBX2uwxbz07QPZlbBQUjk1V83UprM5LZrfq6E29Iad+nJmbbdc2dQ77TWPWdsV9ZS7D9ld9GIQ1kWnbK6aCCaylmzT85rPYcdV42fljjG33yO63bLXG7YDh53I1xqMxwL5k6m1/EklVzqsJabfqGvGmlMTIT+v6czTFgK+jzRruze361JjOrqG1SU+a7sil3m3i+dHZBfeR9d2IbuL9wWyK2PRWeZFfESeoh00QuXP2u5Ov+m7X7XstNONvRpqyJ/cKS1/W9yuub8Z84uagwzJz2vCznKqlx8nZ99HmrXdm9t1qfIY5xIzB9Z2t7jdtXu35nalv74K2V10u3in2hTPDGjA7aIlQv6s7dLt7iQwzDv4WoNhy8REkD9paXS7CCveFgqO4OiQnxeyi/4xjSTSSxdoLjme+j7SdLt0u2UCdLvQysX37W73cVBwOL4Wt6vHbs9hcE+6XdxrkOc7GaI7TUdHgKl9rQHSGHaQd53malVWkF0ZZU5NZHN1Frer/2bPFK+rWB3a2feRptstez3sUemudZEWul1RQHkSII777r52f1pYUx9trkJ2MW9Atws4wgpLQM5BXk2s7e70m7771aFbcbTgV0OttSMtyJqrtTdLF2ShShLERK66WpvGQf3zSzho0h1hfR9pul263TIBul1RQF+3C0UT56hFOY6XRJJ0uxlfz9ruTq+9Y4Odd4ivNRjPTWsH3W4V/zy6qlCHdvZ9pF+h0oSfffQB9tV/lPvpf/kJC33wy6cn5ZIW+XT9pT4Pqk+fOPe/P+o0MKlXPr986rMuxsGtxMGA51B+EfRPtfTpgxx/fv0mnysGU6kfNhGXf5/5/fcdwfH60pHlJZN5njF8AB91L3Kvd6DT25VGtzHOv2vvrxvy+hLZ1YllOKuc++RDt0u3Wybgaw3koT/6u/79e96ymastiUE3JUgaGbqQzmLGph1cWtIluKRRnNT3kWZtt1zZzNRo4tTUDs3kCrVd/R8ioB1wkaJx8iSYqy3ktXSm72SQnx3X4puxQZ5SwAmSzxo9vpOh7LYW9y7f/WoxpbM2XgF1xu2iPob7qzujcceBlk55f5jI1pZQZuyWIQP6aNkdMN3uKXwf6ecig+wJ6Roit2twkfPUVCfNE6gnzR+3IJO/VlJoB/qbH/Z1ZwSHv9Mtcow45pKRznRe01/H0WN1ux4yvh1L0GngeHw+MnU6rzzSafta/77trO3u9Np4kq5wANk98WK1kqbaYWT3OA7bUWvZPS6fLZE1nBTdlgjj+2znfERur+5//+vu4XHG73/+9Z9JM5+O9h+Pf0+Xc9WzAbGQUTgdv+rtTzVkt2qlR6zo59dvyAHo0HLEjO0xt3NunyuNQLdLt1sm4GsNjrAbJibEAu3a/KJxwMF21JDdAVnlp6DbzfNJr1J2y6KTUrtay3YtmJQMZbflxlF2a+lRdim7ZQKU3drX1e7+21E7ul3zowBlt/Z2P8uu/o3eLMfyzjtZ8Cw5T5ontGDS/PGqWMtfu13pI8qy1v+4dkG9Jb6W3S39O/aB7EpMkV051iQjvza3c+7IDc8h3W7Z6wHWZQ8gu2clkIqF10q3o9ayOzhbyK7MS7dby5+yS9ktE9iuBbXPX5D+lN2qG0HZrcKVdqbslkUnpXa1FsrusDu+HXXR7WoT2jd/ym4jT9Z2nz+TQTgeUcc5QUxowQnWgheMXot2u7p9/LGg3jKvll3pL2qIsfjfE92fbciuzMXaLpibv1Rca6fbpdstE4DsQrNOdqBl13dp21Fr2ZWcoYZySrebuZXbOWeC7L5E2S2Lzm64pxno+4wOwHgF2TWi3ELVhNL6HodkfoG+jzRll7JbJuD7jOZfP12uxhGL7aiN202XoNUQ//6yFy4dR0+UpqF7xjnezvmInCm7ZdE5gvtcMX2f0QGs4ojFdtRGdo2w5q+2IDWszETmastEh47dzvmINCi7lN0yAd9n9Ijn3sSMIxZVqLXNpOyae5o/reKcD7XjKmW3LDo7sJ5siO8zOgDmBWXXSPZ2yIYV3e52dOhJ2aXslglQdvGCOfqgCrWRTv2bLqOGxgun/y/DrMtE1lcpu5rGvmPKbll09pE906gqLZhx4UZKHJdQhdqIY0Z2zQJTUTZLNpH11Xwoc1UPDHVcxbl75jfZffvhfjF62HYDLmyehuqMeWrUM+avb8Fi/hmxWOz/7uPng9qBekt8LY5vP9wvyq7EMQvMyK7015GFHvIxod5+uDedJQ301/CP44ZZNs5bxRnBe+V/k10deopjgJsi26mTPBlqIxzyA7g0ut+mKtSLeidLMMJqlmyupqs2kXUHE0pfkmOt/unVIC1VnLvnTNllkaFMwPcZ7f7QLwpHELGoQm3EUS/BCKtZsrlaVfk1odK7o9NIrwZpqeLcPWfKbll0ukOfLqDvM9od16JwBBGLKtTDZFfDWaSn75HurNtDHVdx7p75TXY31kSQgXt/A849H5CRgzPlo1GfYF2LwhFkXUC9JR8tuy21XQ1EarVih/FIv/7xHfnozou1TpFd9EeQUK+LKs56CV3WdZNdHXqKY4CbItupkzwZaiMcoW5NFWotu6ZQYMoIZslVV01kEyqlR7ebMjEtlF0WGcoEqrTAPGEBT4vC4ZhzFeoxsmtwmdOUFWU3ZWJaKLtl0THILnhapQXx+RSFw3EJVajHyK5xu+mpwUXZNUDS0yfZlWrFdN/vHh6ny3lS2r89fJk088UnBLK7eNV3pVVPtcguVoEKrK7PylUsWVaHIsPiVfwN22JkyC6u+hLbN3sV5+4rpdul2y0TqLJg6d4erUVrULTcqlAf5HYhu4BjDKw5RbeJDqo4d18XZbcsOt2hTxfQ9xntjus0smvIaDWEn5U+Zsn5qyYs7C3a9URonOvA95Gm7FJ2ywR8n9Hur2ejQd3jtwRsQa3VMC+s+atp/jpyqsJp//gtLZzbV8fa7tMnUXSv3Zws5oy1XVEK3NmfX7/hGLKLljj3q6Xm2LG2a8joyJBd0ycOwy2ZtHDeEj/fh2637PXaN7fZI/hag330jEHTZVDI7r7Ih45qQa2XnPez+avpAnXk9OqMLS2c29dL2aXslgn4PqP7nnKjFJRd2WwEJmXX95Gm7JZFZ9/L/kyjfJ/RfSQpu6KtQs8YfMqu7yPN2i5ru2UCrO0Oq2O21Bx1BRbCKplr2S2+qzdflzzH1RbO7QTodul2ywR8rQHd7kYCxuDnR+mqC35Llh9ypqu+j/RNdmVXFLJTHGO/mihn7JNz5Sxud6KctbmTN//jJ275pC7pEPA5hxzsyA2yu2Wsll396WVbxp6gTwtneSG0vJZvsotYsxwA3CwJz5vndKgzsivOTjoEvCMtqCG7W9alZZdudwuxjn1Y2y1XNmVvv/L36Wq7kF25ayh0ikMxV0PdWfwMtyMrXduFF1uLI7KLq1VjMao4S9ieLZzbV023W65sdtzlJg3VYsFclgxhldm17J7Y7VahptutwtW38012ZV+S6FMcY7+aKGfsk3PlHLO2Kz9TLz6rGdk9cW0X0rDIxDx7WnZZ2x38erzJLu7ZLAfTWbBZwKZ5xkSdKWVmZJduN72/rO0uMjmukbVd1nbLBGLWdrXbFX+H75BdadFFhtTtYhT8oGMLfoYbnANruyPvPt0ua7tlAnS7xxkfE9kLdeZHB5PhOU69OAs9ut2y1xvsO0buuhvnotsd9gzQ7W58JhvviBdnWR3dbtnrnWN7b1mFrzVYy9wYNP07IhQZMFZfjVzK9EJtYILbWQ+8OAtPul263TKBKdxu1SfqZurCY9zW2ixeLoy13bU7ckQ73S7dbpmArzVYM1zGoGk/m7pdE8SMNVcdT71QhwVy0L3w4izLodste73GKtIRu+XgmAHdLoRV7k7texXods1TTbc78jVFt1v2egfttxOF9bUGAJXxs1p2t7wzN6y580IdFgjuft8DL86yildvP9xj35vrWKpgc+UsO+p0Of/28CVCzmvVW/MBsovvzI2Q/5YcBPWkz4kscAo98eVMt0u3WybgZQ2MBevodvtap47RvFB3XMIUoXw5s7bL2m6ZgFdt11Rg19yueEN9dWSdru9cXu9k6LuK+NF8OdPtlr3eFLv3oUnmrYE2oX3T2O525bPM+87uEi2P2iWlU07qy5m13Wevt6Xudtk++dquyG73ut729yrI1OJ2Z79HvjVHcamzM9ySvy9nul263TKBvDU4yO1CdsVt1b5XYVKPlkc96aICpu3LmbXdcmUTv5mNX7E6KMN8bRdut+/skF3hr2V38b0KfWf3iuZbc/Ra9fh5fTm/unt4nPTrj8e/J818urTzqH9+/XbEiiC7EhyyK6fm6hEJuMTMo3ZJ6ZST+nJ+ru1KNWSu7yg4zpX2jNnmUeuiasfVQVglJmRXTs3VjvP6hsqj9s3tTLP7cmZtt1zZDFiZGpxSvhDG2m7H25FH3XGii4fy5czaLmu7ZQKs7Q6r7/vWHMfXWL1m9OVMt0u3WyZgrEHm7bSNHkpHRhlBYqLIIKfmauO8cYYb1HESO1kmvpxZ2336SAp+5QmYQph8WhWGdKzt6sgQVpkIsiun5iqSmf3AoJ59OWHz9+VMt1v2eifb53csx1gD7Un7/nmYjgxhRcIHFZERP8KBQR0hpVPm4Mv5RW1Xtqa02hKzPa3OxMxzFp6ZPE1t13w2K963u4W//uSEtP+a25Xc9FidbRpHrs7Yrp/qGfOf5b74cqbbpdstEzDWQHvSWrebd6w6cup2T2m7zKIManOVp70I+HJmbZeF3TIBUwjTnlQ+61Z82Zbv+UKwjgzZ3RL2NH0M6tOsK9pCfDnT7Za9Xq8Ndt442hpADWU5+E3XxtXR7eZBadT5nrzaQsCX88InkOl9SdfIorXr/SpyntG47cgHqPX/y5E4kF0dFsfpfdH1WXTDwZrbTePIkPO1C+rzrSva/fLlTLdLt1smoK1BX7eri7mi6bAwZiK0n/tAoz73Sn1X58uZtd1yZRNe7LIHcLvmo7/Sf2JWRGRqu9reSnBEgOyi5QoHGvUV1uu1Rl/OdLtlr+e7LUeYXVsDqKEkhiLDxjxNbZdu13DTqM0lnnYk4MuZtd0Xbpc1NXEfhgOsQW1tFxotYbVGS8tGt2vygUU6X7ugPt+6Fp8rx/voy5lul263TEBbAyipWA+tpKkZKXbWbtd0Nqdp8FO2aNSnXGCQRflyZm33hdvF9ssDTQBut7a2C+mUaNBoOTVX9YyXPdaoLwthwMJ9Od/crny0XboXhW03+1XYPA3SGfPUqKGVsi6tpGaluiJhOssP0SaU9JmRj154Y/5A3RgHKTHO4nPly5lul263TEBbA2ilWBItu6lJyXc2V9PhF2zRqC+4/GFL9uV8c7vYHmc5wH41S8Lz5qlRQytlOZDdxdWZzot92KgJaNS6ncd9Cfhyptste71hO3DYibQ1gJJKtpBdJK/fmWs6ow8P1gho1Gt92N5OwJfzze1OVwMy+9V0+ZvdO3L+GjWUVPLXsosWLM10RrvUdvUpjiNzQJLH5Q/UF+cA1Adx8OVMt0u3WyagrQGUVByHll20wIyYzmjnwRoBjXqtD9vbCfhyvrldbC+zHGC/miXhefPUqKGkshzILlan/w7NdEYfHqwR0KjX+rC9nYAvZ7rdstdr31pnj6CtAZRUFgXZxRpZ2wWKHQca9Y7hHLKRgC/nm9uVGor+LluKbtF1Fvd2/FuO4HmaOqA7tx35yD/1Ec6QXYmjZVf+04S0mM561bxfmdcRXJgmlukvMHFP9ShyznDz5Uy3S7dbJqCtAWQXtkLbW63C6Z+0YQgP1gho1Gt92N5OwJfzze1i25zlAPvVLAnPm6dGDdnFcnQxN/3XavpTFzCEB2sENOq1PmxvJ+DLmW637PXat9bZI2hrANnForTbTf+1mvmMMYziwSIBjXqxAxu7EPDl/OR2dT1oomPUdifKeVLa+h+2Q3axFnG7vAtdCPCpxnPVhedaNF/OdLt0u2UC2hpAdmE6jNtFOw92ENCodwznkI0EfDlPXNs1JcX2cg8jrBHQhTDILjrzRgBF+4FG3R6NEdYI+HKe2O3SZG3c2Nu7aWsA2UVY3gigaD/QqNujMcIaAV/OE9d25dW+Vrthe0cCrO0eWmfUd8q35qgzOfexL2e63XJlc23DvE67tgap270OhwEr1agHTHfZKXw532q7sp9LKWSKY7jdiXKGg5gr58xfqaF2NsUzE58/ao7keehrxJezs9ttKQu2jL3sJr9v4doa0O3uY7hxlEa9cQi77SDgy9m5tgvHKnt71feWsXA9VTNedlS+tkuGHQn41hyv84T7cqbbvUptt+WHA20N6HZ3eKvtQzTq7aPYs5aAL2fn2i4c6446TstY7Oo75p10rH53rbiz7WtnbXc7q1q2pr9vzXHSZ9swlJuVX4svZ7pdut0yAW0N6HZrjVVVf426aiA7VxHw5TxTbVc+y0p2NnzkCvY0tLNlkUDLJyewtjvs6fKtOS4+OcPWPnJ2X87TuF1jssznulZtdNfszNruFPfd14VNgahLkr6cp3G7WnbNfzE45W7cvvPLJy4iTovb1T9n4EYgMvl3JODrwq5zT3050+2WK5tddtfBQSCOMm/jDwf6M3NN5MHrOv10vi7s9HixQF/OdLv38+7wxs9qzwVxlNVp2UWL7p8/ptvN8+l41deFzftaqM3clzPd7sRuV5tQbONyANmVUy278ttIaTGj1k71RCby2hC27yPg68L25TzjKF/OdLuXcLv4F2fiy6DCGz0C3W5HP5tn7uvC8rmd6aovZ7rdS7hdvN9OjAlkd6NPodvdCKq9m68La89/lgi+nJ9lV/YxQTbyWL+rKT+v+dnWCEd+7Ph1jclH13bNGg0ukw/omXa8Zkw7ZPfdx8+IbPqsjWU7nLK5R4vtIgdku4VVSx9fzudxu5AGvM5Pf5BZMsRxEQJkd/Fq2qgnykdOx7KlioCvC6tKderOvpzPU9vV9Uf4CHENZ/0uari4Oojj4lXI7uLVlJ5mm4+cjmVLFQHfmuPG56FqRTFj+nI+rdvV5Yupt+VM8tqEmm4QR9Mup5DdxVMzxIQyp6YzTxsJ+LqwxuQnGu7L+SS1Xa0Fsrvi88nwKEi7nJ7jWLtdsy4NBN5E99F8jAq//XCvBV2HEm6ZeRfn0vPyOP/siRzk+5BhOx9fzidxu1oadrwvVZ7j6b5rcTTvVTBA0qXpnwa2y67EMfOmwdmym4CvC9ud9nQDfTm/unt4/O3hy7Dvr39813P9/Ppt4+zQEekPpZBo+at6xjMdv/7xXdP7+fUbVgcgaNE9f3v4oskDJvroyAiFq2sx2d5O4I/Hv8l5AAFfzqPdrjFK2nPlN0y8+KUblEJO81fzkee9moFpgKRr1OTzMIuh0uBs2U3A14XtTnu6gb6cKbvn+XMJraRFrdSd87L79sO97zM63Uu6JWGibqG3fawvZ8rusuwaI7n9do7saZLUSkrZHXkjOs7lKwcdFxI8lC/n0e/b1e8AxW+B5PeS+e9aR9LP281fzUdevGryXOyD39oPu2qyEtnF7PoTdQEEV022otFyVbvd9O/Q3n38rP+7hImzFp/t+wj4vp90X84zjvLlPNTtQgtkJ9Svdmkx9k2fmrGQbGyqunMaWTtBDMkc6GjmDVWZUUdfymel15jiMrnpzgZXOtbXGpjMz31K1GPury/n88iuvltGR1KN1p0Xj7XAGRlKgy9GOKJxe1Ym5zQZym7KJEKLrxxEIDAmB1/Oe2RXv2KrGBktSPVLy4rxmGZsXknTyFU5p3PpxNLgVRBaOus0TJImK3M1ndQAMad6Iv5KLaV3XIuvHBy3rmiRfTmb2u7T75eWKjUv2lUN8UW7GrvcrrXgZX32uX+mdvly7FN/UYqX2T7HgQb9e/Wp87/Hn2vzxAbw7uPzvBK/GEf6b5+32F/zARCJjyX/k9XTn5nJ18vZn/kk9Ap8ktruLc5afLa/JCBPXZnby5pjuf/LWdh/Ds5x3S6EQ/ZJcwrhWNxFtQZJh7ybM0HSubT7S4Ob4ced6jRMkiYrc7WYkuFj+vtaA5PMuU+Jesz99eUcSHaNUphTWE7clQw4o0GpRmv9QkAc5KdOg2Pg0Qc6bZOkycpcLSZG2S0iGtMh81SPSeAis/hyjiu7qc5q0ckXHI0GmdM0shGdvGal0YY9qZqASdJkZa4WMzQETH/fZ9Qkc+5Toh5zf305P8uuVIjSBS+2o066sT9qoEYLMkoh82qVkbl0PhqcbpeeoiPSnplIjLB0WMsT7Yhs+tdy2N0fQPS7a9OsZF8R2nI15WPajeya/kBt2rEQthueIFPbLqjJs5ZbbX9fzqHdrnl2zSm0wLTLqdaR7bIrY832YOKbaObqoaeQ3VRYTVb5JaRJalzp1TzqtD9bdhMg6t3oqgb6cvaU3dqSq8GaB6d1JC9J5mqqaGbetL/pkD/V0pnvmV7VY1Nh1UtOCylpNN1ixupL+XqO6cnTRgL5p7oxOIeDgC/nTbKrX+0tWtlXKfLgtI4YoTRpmKuUXTyaOMijRjcetBMg6naGWyL4ct5U201lV9ee9FXdLouXq9Ju9M7UTDWsNI5c1e0anG5P46TCqvvrq9KezzPtr2dM89RXpSarW4r9dWegTmu7sh3qdaHzFs56l0r7A7WOrxNje9V9BLqUm6BO23vFZxwh4Mu57HaNBmnRkQXol7e04LsZa07Rbd8BtGDLcCMresjiiiRV3Q3HaX9ckoMMkPRn/0xiJqwZm8I0ofJpmOBmrLlahdqM5WkVAaKuwrW7sy/nobJrhGM3MhlYBS4jK6mMpoqmU03766v5NZrIaahMniayCZUWf0xWLadVqFsm4liiHvMM+HKm7D79PWX6lbGKqVaa4WasVlKjlWko3TkNK8Ol3YSi7Bpck576ysGk0Hak7Y89n84AAAyqSURBVMu5v+xq4UilwUjSDl4YUgVOZ4UI+w5SrTSLMqd6agMkDaU7F+1tZqJ9S1sbVYV6LQjbtxAg6i2U2vv4ch4tu+28EKEKnJEzBNlxkGqlkT9zqqeukl3T2ZwaUabb3XErAw6peqoD5j9LSr6cKbsLFYb8o+Mlu6nOGn3Pp91y1fcZbcl8urFEPeaW+XKm7HaWXeNJjUbnrxrHajpTdse8IH1n8ZUD37WPnN2X81Vkt+MdNUpq1NBopemcv1orux0XlQ/l+4zmczvZVaIec0N9Od9k9837OyxYH2ulePP+DjqCPq9/fMdxRjh0ny7Hvz186RLn7Yf7qjggILgMH6iwxMx0FlbSATlIIVjG6siYa/EeVeWPuSTUlrG/fv7TZd4tuZ2sD+TgZOuK9vz4cr7JLriYA/PiNzoClcGozG+Q0KfLAcB1ibY9iCFg+KRxNBCDy4TKbFoSdlgx16zCC7VJ4wqnRD3mLvtypuy21nY7yq5R4WLkMQ8oPwpnGGeiHoY6ouxqV2Ve/EYajH0r+rWOWL3AGQKGT7rAjNs1uGojp3Md1OKF+qDlRA5L1GPuji/nm9vVtaQ12U1ru0Z0MsKh43c5DlvblecGa/z59RuOzS4lPNEf9KS/YbujJqvnbTlmbRf3CKLQwjMzFnKQ6XN0DleI78v5JrtgbV7t5hTdcKA1GsIhV4tjEWTHAcDtGNsypHaNdLsttK821uupJueRBMqyawxamtzVZNdUBop8KLvpM8OWNQKU3TUyfdt9OXeQXY2j1gnqsbXHjuDySmoWYjpnro6kZ9LInzqizid2vqtEPeae+nJ+kl2pIuE7KgO6Bcdpf90C4ZD+CKX79DpGbXdjbr3mhdvFvHjnMlr0XKjtFq+OpKczLB5LbXcx/+JYjqoi4PhUV+U5+3335Uy3W/0GMsgutmVdZkEjDuh2gYIHRQK+LqyY3mk6+HK+ya7sdVKpFJcqiN+8v1uUFfTXdwJ+TRpTt6s7I37aiL00vYR5DTi0myFHtGslLfLRnfPrytAzi8rHSTs39teoj+CpE754fKC+OAc8Egdx8OV8k12sU2ulNC7KLvrrgyrh0AN3HAPcjrGNQ4yS5vmYzpmpR9LLpJFeckSdJnPuFqIec399ObO2+/RJFLKjbv8uSor++dru9viQXYms9z/MtT1ax56s7Q7j71tz7PjMDCO2L2dfznS7h9d2t+/ekF0ZomV3e5AjevpagyNWFDYmUY+5Nb6cb7Iru1O+tos+2GGEEdozwoE+a2Nr27FfmRxq4+zor+sGHdcFehIzld2Oc+Hh3hKTf6U27BmDHGy5L+yz+774cr7JLl6H6asdl0IdAFyorFqSgexKkDg34nyoW27ToWOJ+lC8CO7LeVNtF35Qdtcg3+F2g+TTTgmyKyvSsuu7RtZ2h/E/31Pd/ro4IoIvZ7rdPbVd7Jl9DyC7ElbLbt+JaqP5WoPabKfuT9Rjbp8vZ7rdPe9kOMj7QHbpdg8ifIRv6hvT14X1XUvkaL6c6XbpdssEfK3BGPsTZBaiHnMjfDnT7dLtlgmwtjvMffu6sMj+tG9uvpzpdsteb8z2Kx/1IHUGmZG13WHk40zk68LicDg6E1/OdLtlrzfM6bC229fRzBjN14XNSGxfzr6c6XbpdssEfK3B0cYnVHyiHnM7fDm/cLtv3t/J52nJj7dwedKe7iq+7el+5ZtPO581t+u+LlPbdc8HT6YwP1M++qk+07r0qyPCunw50+2Wvd6Y7Ze13WGcI0/k68Iik+mbmy/nF25XdiT8Jsd4Cr1fRTjW+1WEfNpzWHO77ZEbIxi32xgt+HPlu7rzPdW+PNdm9+VMt0u3Wybgaw362pzg0Yh6zA3y5fzC7UrNJXW7EWoxeteSfNL9KmaeOnM5Xstzze2u9R/WbtzusHmNL77CvPqpvsJ69atj5Hp9OdPtlr3emO2Xtd1hnCNP5OvCIpPpm5sv5xduV3ae1O3qHSnOsd6v4mTVksma222J2WWscbtdYhony5hC4HxPdcw768v51W8PX8wXZNe0Rzv938f/j5ZSYz6QXYkT50acD3XjnTpuOFEfx1ZH9uX8Suop+jte7box4PGvn/8MmFVLSpBdCRLnRpwPdcttOnQsUR+KF8F9ObO2y9pumYBvIaxvUS94NKIec4N8ObO2y89kKBNgbXdYJdq35hizDntEVr6c6XbLXm/M9st3MgzjHHkiXxcWmUzf3Hw5s7b79DEUQb5Y2w1yIxzT8K05Oi588NS+nOl26XbLBHytQV+bEzwaUY+5Qb6cWdstVzaH1fW023374R7vZDiitlUVk7XdYc+Ab82x6qkYxuSIrHw50+2Wvd6Y7Ze13WGcI0/k68Iik+mbmy9n1najFHbfvL/Tbtd88PHgypeZzrcQZpI59ylRj7m/vpzpdul2ywR8rUFfmxM8GlGPuUG+nJ/drlRPZJ9BSRG1G2nXfSIcS3UmZm77+OTd7r6YXfjAGjjmIAsJ/ky28xHU7XG63PcTM/flTLdb9npjtl/WdodxjjyRrwuLTKZvbr6cWdsNVNuV8i4shpR39anXMdyuVwLXmZeox9xrX850u4Hcrhhevau//vFdn3od+1oDr1W7zEvUY7D7cmZt9/l9u7LHRqupvf7xHZu/Y26wBo45ROAwIAdBTc5Hvx59OdPtxnK7Zqun2zVATn/q68JOjxcL9OXM2m6s2i78lBxot2sujTyF2x056TXnIuox992XM90u3W6ZgK81gEO5wgFRj7nLvpzpdul2ywR8rcEY+xNkFqIecyN8OdPtlr3emO038iy+1iAyme65EXV3pIsBfTnT7Za93pjtN/IsvtYgMpnuuRF1d6SLAX050+3S7ZYJ+FqDRbdy1kaiHnNnfTk/u139G3P9mQyLG0WQRt/9KgiEMWkQ9RjOb97fEfUY1L6cn92ufn8oZHfMtrN7Ft/9anfaMw4k6mF3jajHoPblTLfL2m6ZgK81GGN/gsxC1GNuhC/nm9uVj9Qz/0tG/kgR+w/6RGjHv+WQ9ELlFoFPxxzkn/qQ84BnDC5swFwxX9cdn9sMQ1/OdLtlrzdm+408i681iEyme25E3R3pYkBfzje3i62PtV2g4IEQgDUgkKMJEPXRhCM80nS7dLtlAr7WYNGtnLWRqMfcWV/ON7eLOohxu2gfU3PBXlecl7Xd7awa7x1ru4K6+Ew2cn7z/g5ud8Bcw56fgGvx5fzkdqGzss+Y0zGbz45ZfPerHQnPO4Soh907oh6D2pfzk9uFzmL302/jRWO0A+xX0RI7Xz5EPeyeEvUY1L6cF9xunH/hld/3fPerfG4nu0rUw24oUY9B7cvZul2pwkzxHbXdKbJF1W/GbKW2O2Pm0+XMp3rMK8WX87LbHbPhNM7iu181Jj/XcKIedr+IegxqX87W7aaFFfELAdtNdSZsngbdjHlq1DPmr29B8PyBOnieQDppnr6cF963O2a3aZ/Fd79qz3+iCEQ97GYR9RjUvpyf3C5+hzamqtJrFt/qTK9VTBGHtV3xdAO+86ke84rw5Uy3W/4brTHbb+RZfK1BZDLdcyPq7kgXA/pyfnK78tbd6Wo0qM7IEqbLH9Wx+Plr1OR86P0CanI+MWe6XbrdMgFfa7DoVs7aSNRj7qwv5+fa7ph6St9ZfKszfdcSPBpru+I9B3znUz3mteDL+dntjtlh+s7iu1/1XUvwaEQ97AYR9RjUvpzpdu/G7K5Tz0K3O8DnyhPi68Kmfkqr7pEvZ7rdcmVzzPYbeRZfaxCZTPfciLo70sWAvpzpdul2ywTodqucVItn9HVhLZnPNdaXM90u3W6ZgK81WHQrZ20k6jF31pcz3W7Z6w1zOmH9At3usGfA14WFfQK78/flTLdb9npjtt/Is/hag8hkuudG1N2RLgb05fzC7Up+6Y4Xsz3dr2LmOQvPTJ7G7ZKzsDqCg36qj4iv7/KV4/typtul2y0T8LUGog4X+U7UY260L+cXblfvhPGP9X4VP9upMzRud+q1dK8S9qXBp7ovz7Vovpzpdsteb8z2G3kWX2sQmUz33Ii6O9LFgL6cX7hdyS/dH2K2p/tVzDxn4ZnJ07hdchZWR3DQT/UR8fVdvnJ8X850u3S7ZQK+1kDU4SLfiXrMjfbl/MLt6p0w/rHer+JnO3WGxu1OvRbWdoMTGPN0+arHq18//znp1/98+b9JM58ubaIedsuIegxqX87PRQbZYVJ7H7ld/5gQOU9NddI8gXrS/HEL4ucvqOPnKUjnzdOXM2u75comXrSXPYDsXpbAsIUT9RjUvpxZ2+VnMpQJsLY7rB7qW3MU93qF776c/wv5f0OWoHkBaQAAAABJRU5ErkJggg==;" vertex="1" parent="ahQK9jsco0dOjfoVY5je-33">
          <mxGeometry width="709.48" height="440" as="geometry" />
        </mxCell>
        <mxCell id="ahQK9jsco0dOjfoVY5je-14" style="edgeStyle=orthogonalEdgeStyle;rounded=0;orthogonalLoop=1;jettySize=auto;html=1;exitX=0;exitY=0.5;exitDx=0;exitDy=0;entryX=0.25;entryY=0;entryDx=0;entryDy=0;strokeWidth=5;fillColor=#e1d5e7;strokeColor=#9673a6;" edge="1" parent="ahQK9jsco0dOjfoVY5je-33" source="ahQK9jsco0dOjfoVY5je-5" target="ahQK9jsco0dOjfoVY5je-12">
          <mxGeometry relative="1" as="geometry">
            <Array as="points">
              <mxPoint x="30" y="45" />
              <mxPoint x="30" y="280" />
              <mxPoint x="93" y="280" />
            </Array>
          </mxGeometry>
        </mxCell>
        <mxCell id="ahQK9jsco0dOjfoVY5je-5" value="Indicator" style="rounded=0;whiteSpace=wrap;html=1;fillColor=#e1d5e7;strokeColor=#9673a6;" vertex="1" parent="ahQK9jsco0dOjfoVY5je-33">
          <mxGeometry x="47" y="20" width="150" height="50" as="geometry" />
        </mxCell>
        <mxCell id="ahQK9jsco0dOjfoVY5je-6" value="markers" style="rounded=0;whiteSpace=wrap;html=1;fillColor=#fff2cc;strokeColor=#d6b656;" vertex="1" parent="ahQK9jsco0dOjfoVY5je-33">
          <mxGeometry x="48" y="90" width="150" height="50" as="geometry" />
        </mxCell>
        <mxCell id="ahQK9jsco0dOjfoVY5je-9" value="Marker 1" style="shape=callout;whiteSpace=wrap;html=1;perimeter=calloutPerimeter;" vertex="1" parent="ahQK9jsco0dOjfoVY5je-33">
          <mxGeometry x="265" y="110" width="60" height="60" as="geometry" />
        </mxCell>
        <mxCell id="ahQK9jsco0dOjfoVY5je-11" value="marker 2" style="shape=callout;whiteSpace=wrap;html=1;perimeter=calloutPerimeter;" vertex="1" parent="ahQK9jsco0dOjfoVY5je-33">
          <mxGeometry x="533" y="15" width="60" height="60" as="geometry" />
        </mxCell>
        <mxCell id="ahQK9jsco0dOjfoVY5je-13" style="edgeStyle=orthogonalEdgeStyle;rounded=0;orthogonalLoop=1;jettySize=auto;html=1;exitX=0.5;exitY=1;exitDx=0;exitDy=0;fillColor=#ffe6cc;strokeColor=#d79b00;strokeWidth=5;" edge="1" parent="ahQK9jsco0dOjfoVY5je-33" source="ahQK9jsco0dOjfoVY5je-6" target="ahQK9jsco0dOjfoVY5je-8">
          <mxGeometry relative="1" as="geometry" />
        </mxCell>
      </root>
    </mxGraphModel>
  </diagram>
</mxfile>
